PathFileType	4	(X/Y/Z)	s02c0201.trc
DataRate	CameraRate	NumFrames	NumMarkers	Units	OrigDataRate	OrigDataStartFrame	OrigNumFrames
200	200	4	51	mm	200	500	2000
Frame#	Time	racr			lacr			c7			jug			rlel			rdr			llel			ldr			s2			lic			ric			lasi			rasi			rpsi			lpsi			rgt			lgt			rth1			rth2			rth3			rth4			rlfc			rmfc			rsh1			rsh2			rsh3			rsh4			rlmal			rmmal			rcal			rtoe			rmt5			rmt1			lth1			lth2			lth4			lth3			llfc			lmfc			lsh1			lsh2			lsh3			lsh4			llmal			lmmal			lcal			ltoe			lmt5			SBIKE			LBIKE			RBIKE			
		X1	Y1	Z1	X2	Y2	Z2	X3	Y3	Z3	X4	Y4	Z4	X5	Y5	Z5	X6	Y6	Z6	X7	Y7	Z7	X8	Y8	Z8	X9	Y9	Z9	X10	Y10	Z10	X11	Y11	Z11	X12	Y12	Z12	X13	Y13	Z13	X14	Y14	Z14	X15	Y15	Z15	X16	Y16	Z16	X17	Y17	Z17	X18	Y18	Z18	X19	Y19	Z19	X20	Y20	Z20	X21	Y21	Z21	X22	Y22	Z22	X23	Y23	Z23	X24	Y24	Z24	X25	Y25	Z25	X26	Y26	Z26	X27	Y27	Z27	X28	Y28	Z28	X29	Y29	Z29	X30	Y30	Z30	X31	Y31	Z31	X32	Y32	Z32	X33	Y33	Z33	X34	Y34	Z34	X35	Y35	Z35	X36	Y36	Z36	X37	Y37	Z37	X38	Y38	Z38	X39	Y39	Z39	X40	Y40	Z40	X41	Y41	Z41	X42	Y42	Z42	X43	Y43	Z43	X44	Y44	Z44	X45	Y45	Z45	X46	Y46	Z46	X47	Y47	Z47	X48	Y48	Z48	X49	Y49	Z49	X50	Y50	Z50	X51	Y51	Z51	
500	2.5000	538.837897	1269.897494	-206.260337	468.669378	1254.265725	-540.352825	488.273231	1312.745356	-385.262144	425.099481	1187.971397	-363.640966	548.319674	1023.817207	-83.620054	707.356455	885.359767	-123.126453	478.536507	975.124999	-589.809876	685.905814	893.107776	-521.053945	-28.324984	1116.244148	-310.721465	110.522794	1122.227025	-455.914815	104.247606	1134.252720	-170.434270	152.639689	1095.867910	-429.956818	149.749846	1097.730768	-193.692068	-0.409288	1173.943534	-262.795791	9.513269	1190.156636	-347.002513	81.797070	1044.171763	-126.302875	67.615303	1033.154740	-482.344651	174.449726	1008.040912	-135.324747	259.518203	986.119725	-143.851924	324.913853	933.675512	-124.870853	272.946208	1009.873315	-169.912519	417.172427	826.057778	-162.221223	396.035384	810.561076	-271.746403	359.950293	729.430216	-148.719999	307.023568	659.344755	-167.886558	230.855864	619.039366	-159.206123	314.243381	654.263038	-206.208223	131.018777	551.157520	-158.330904	149.739605	560.512813	-241.435261	42.795212	554.836231	-202.686100	259.202042	364.970292	-190.061960	165.862641	424.732411	-139.014688	197.395659	412.800963	-244.193268	176.365438	939.154233	-502.263280	244.212883	884.628021	-497.781145	270.762549	904.126342	-481.286004	274.437698	800.468609	-496.696885	332.526389	719.952964	-476.738758	334.736984	687.065426	-378.559352	335.456562	616.193499	-504.544215	358.312387	533.389697	-491.871783	336.668736	445.703951	-497.302076	373.973345	535.580985	-453.762004	322.989493	336.901653	-488.863712	335.573367	332.832632	-409.543120	260.235464	289.763122	-456.931907	546.527980	247.068105	-437.600436	443.744486	237.567046	-508.157349	-165.116316	856.220701	-319.605423	32.846928	82.086613	-515.335392	32.943587	82.255383	-115.263559	
501	2.5050	537.868378	1271.507695	-204.937955	469.084930	1255.584090	-539.910215	487.690795	1314.771172	-384.223816	424.913747	1189.687924	-363.187432	548.559496	1024.316625	-83.984807	707.428987	885.406093	-123.192706	478.704343	976.094084	-589.040235	685.890190	893.048363	-520.909778	-27.963727	1115.464541	-311.259776	111.242005	1121.664130	-456.021350	103.911847	1134.076486	-170.709814	153.394370	1095.194697	-430.088759	149.574607	1097.752688	-193.904720	-0.518688	1173.009121	-263.410331	9.688333	1189.232219	-347.589264	81.679938	1044.226511	-126.398763	68.348746	1032.016992	-482.424666	174.487217	1009.106949	-134.993598	259.969789	988.418844	-143.124483	326.026830	937.008228	-123.911744	273.119699	1012.441357	-169.103823	419.837352	830.353976	-161.013939	399.512245	815.346027	-270.695790	362.797481	733.712640	-147.856509	309.746793	663.875804	-167.284737	233.568476	623.696669	-158.777111	317.002819	658.886167	-205.601720	133.596856	555.873208	-158.192242	152.387888	565.373799	-241.439814	45.493994	559.592511	-202.510092	262.148630	369.919115	-190.194365	168.688629	429.623663	-138.916975	198.436630	418.069835	-244.398053	176.418974	937.256751	-502.449983	243.697361	882.003846	-497.932021	270.469252	901.201872	-481.311917	273.054948	797.551460	-496.907384	330.247755	716.501137	-477.024078	332.086760	683.574396	-379.008826	333.607441	613.194701	-505.526021	356.280972	530.166518	-492.347317	334.929407	442.395762	-497.787176	372.125839	532.316242	-454.362716	321.976944	333.623829	-489.444704	334.312443	329.659056	-410.028360	258.716169	287.529912	-457.439448	544.232269	240.792431	-437.409898	441.581613	232.720873	-508.156982	-165.088623	856.290863	-319.454141	32.830545	82.123461	-515.299720	32.945214	82.257188	-115.272333	
502	2.5100	536.829516	1273.160633	-203.555230	469.636914	1256.919688	-539.288228	487.162345	1316.784152	-383.202466	424.701845	1191.441046	-362.722249	548.777269	1024.898374	-84.372491	707.511449	885.464974	-123.261166	478.857601	977.096573	-588.430481	685.873513	893.035091	-520.795192	-27.564125	1114.695341	-312.000435	112.001956	1121.051515	-456.265024	103.457422	1133.943011	-171.275904	154.263289	1094.586185	-430.382395	149.411256	1097.748526	-194.082927	-0.636883	1172.049781	-263.954054	9.739372	1188.092959	-348.131620	81.569377	1044.260775	-126.550552	69.143079	1030.918476	-482.440086	174.530493	1010.205823	-134.640385	260.385813	990.677892	-142.452503	327.074425	940.273065	-122.953556	273.238881	1014.928253	-168.409272	422.493562	834.815894	-159.776028	402.677196	819.616510	-269.704446	365.653041	738.008382	-146.998851	312.267255	668.149393	-166.780267	236.176163	628.342482	-158.401529	319.853238	663.183799	-204.950621	136.345996	560.639443	-158.133245	154.179463	571.588934	-241.257307	48.120981	564.247420	-202.473071	265.351849	375.078492	-190.262688	171.779256	434.516540	-139.039155	201.361554	422.938168	-244.631855	176.514408	935.335392	-502.571855	243.267569	879.503743	-498.069614	270.177168	898.408101	-481.401398	271.810219	794.670829	-497.122838	328.132352	713.190401	-477.208869	329.642690	680.230652	-379.288070	331.325154	609.988146	-505.969389	354.230011	527.081163	-492.777887	333.232341	439.126636	-498.235468	370.096002	529.240523	-454.727784	320.934031	330.482379	-490.074564	332.954333	326.559588	-410.567366	257.122088	285.481472	-457.830900	541.896532	234.304211	-437.257039	439.218387	227.820857	-508.139423	-165.033461	856.497128	-318.927953	32.836678	82.095497	-515.340562	32.942099	82.250154	-115.269530	
503	2.5150	535.719272	1274.786352	-202.127906	470.122814	1258.330039	-538.763934	486.592582	1318.778364	-382.118545	424.448623	1193.176745	-362.208911	548.961006	1025.479506	-84.716712	707.616535	885.511552	-123.304394	479.153504	978.061911	-587.788977	685.877236	892.983389	-520.685383	-26.843822	1113.909759	-311.624691	112.674554	1120.417459	-456.341529	103.085322	1133.679910	-171.545856	155.076720	1093.945953	-430.688486	149.234291	1097.674395	-194.293257	-0.780512	1171.038624	-264.593411	9.778220	1186.994871	-348.714006	81.398054	1044.360373	-126.714043	69.929087	1029.771136	-482.484387	174.594605	1011.229424	-134.193467	260.756713	993.005640	-141.636132	328.077338	943.521806	-121.882828	273.381588	1017.379732	-167.598724	425.048395	839.238826	-158.550972	405.779886	824.010849	-268.806932	368.397246	742.060152	-146.791149	314.238967	672.278370	-166.904294	238.670912	633.082800	-157.492830	322.736259	667.731558	-204.181012	139.054418	565.291109	-158.038280	155.829489	576.601026	-240.247435	50.899549	568.513870	-202.344044	268.718490	380.209356	-190.317279	174.911133	439.264996	-138.975084	204.558687	427.480207	-245.127030	176.669937	933.511571	-502.678531	242.862586	876.996546	-498.164765	269.929456	895.675931	-481.429891	270.522476	791.948504	-497.348069	325.942531	710.046957	-477.475473	327.337732	676.901401	-379.453343	329.148400	606.929553	-506.256559	352.299363	524.059057	-493.081231	331.510793	436.042020	-498.621070	367.958473	526.244935	-454.939313	319.765881	327.477671	-490.554341	331.706644	323.482657	-410.931537	255.401922	283.643990	-458.116642	539.439705	228.091546	-437.194866	436.698472	223.061832	-508.131095	-165.136539	855.686226	-320.841597	32.844947	82.094206	-515.328723	32.951796	82.233524	-115.270212	
